<?xml version="1.0" standalone="no"?>
<!DOCTYPE svg PUBLIC "-//W3C//DTD SVG 20010904//EN"
 "http://www.w3.org/TR/2001/REC-SVG-20010904/DTD/svg10.dtd">
<svg version="1.0" xmlns="http://www.w3.org/2000/svg"
 width="161.000000pt" height="161.000000pt" viewBox="0 0 161.000000 161.000000"
 preserveAspectRatio="xMidYMid meet">
<metadata>
Created by potrace 1.11, written by Peter Selinger 2001-2013
</metadata>
<g transform="translate(0.000000,161.000000) scale(0.100000,-0.100000)"
fill="#000000" stroke="none">
<path d="M690 1603 c-409 -68 -699 -416 -684 -821 7 -214 88 -398 237 -546
209 -206 503 -279 789 -197 247 71 450 266 532 511 32 98 38 136 39 245 2 113
-7 178 -34 258 -97 283 -309 472 -610 543 -30 7 -236 13 -269 7z m283 -53
c263 -68 469 -255 551 -500 31 -95 40 -153 39 -260 -2 -113 -25 -206 -78 -315
-155 -317 -502 -485 -844 -410 -277 61 -499 277 -571 552 -38 146 -33 279 14
429 35 109 87 194 176 285 120 124 249 195 408 223 84 16 237 13 305 -4z"/>
<path d="M654 1515 c-291 -67 -508 -293 -563 -585 -13 -73 -6 -230 14 -305
109 -409 539 -638 938 -500 133 46 259 139 344 255 97 132 137 259 136 435 0
107 -3 131 -31 215 -73 222 -247 396 -467 466 -100 32 -276 41 -371 19z m351
-35 c295 -93 489 -347 499 -654 9 -270 -144 -525 -387 -645 -398 -196 -867 15
-988 444 -29 101 -31 258 -5 355 39 148 137 294 256 383 57 43 167 103 208
112 9 3 42 11 72 19 81 21 256 14 345 -14z"/>
<path d="M635 1272 c-99 -21 -152 -111 -111 -190 17 -32 85 -72 169 -97 76
-24 117 -61 117 -109 0 -50 -38 -83 -107 -92 -73 -9 -143 24 -159 76 -8 23
-19 36 -32 38 -18 3 -20 -1 -16 -24 16 -86 83 -129 201 -126 l51 1 -10 -29
c-14 -42 -16 -177 -2 -237 13 -60 51 -116 94 -138 60 -31 160 -22 212 20 52
42 78 131 39 131 -15 0 -22 -11 -30 -42 -13 -52 -48 -81 -107 -90 -70 -10
-117 16 -150 82 -24 50 -26 61 -22 161 3 94 7 113 28 145 39 59 111 82 174 57
47 -19 66 -39 77 -85 8 -30 15 -41 27 -39 20 3 21 55 1 92 -23 43 -92 75 -162
77 l-62 2 -1 39 c-2 51 -49 94 -137 125 -142 49 -175 79 -162 142 13 56 99 91
169 68 40 -13 86 -62 86 -91 0 -12 7 -19 20 -19 46 0 5 96 -56 132 -31 18
-101 28 -139 20z"/>
</g>
</svg>
